<?xml version="1.0" standalone="no"?><!DOCTYPE svg PUBLIC "-//W3C//DTD SVG 1.1//EN" "http://www.w3.org/Graphics/SVG/1.1/DTD/svg11.dtd"><svg t="1604458267663" class="icon" viewBox="0 0 4242 1024" version="1.1" xmlns="http://www.w3.org/2000/svg" p-id="3167" xmlns:xlink="http://www.w3.org/1999/xlink" width="828.515625" height="200"><defs><style type="text/css"></style></defs><path d="M658.285714 768v-174.006857l71.149715-71.149714L877.714286 877.714286z m-438.857143 0L0 877.714286l148.278857-354.852572L219.428571 593.993143V768z m141.842286-32.128a109.714286 109.714286 0 0 0 155.154286 0L621.714286 658.285714v146.285715l-182.857143 73.142857-182.857143-73.142857v-146.285715l105.270857 77.549715z" fill="#FFFFFF" p-id="3168"></path><path d="M459.940571 651.465143a36.224 36.224 0 0 1-42.203428 0S182.857143 460.434286 182.857143 292.571429v-36.571429c0-150.637714 104.521143-256 256-256s256 105.362286 256 256v36.571429c0 167.862857-213.833143 343.168-234.916572 358.893714zM438.857143 146.285714a111.323429 111.323429 0 0 0-109.714286 109.714286 109.714286 109.714286 0 0 0 219.428572 0 114.614857 114.614857 0 0 0-109.714286-109.714286z" fill="#0BB3B3" p-id="3169"></path><path d="M2742.857143 694.857143l-146.285714-341.339429L2450.285714 694.857143h-146.285714l219.428571-512h146.285715l219.428571 512h-146.285714z" fill="#FFFFFF" p-id="3170"></path><path d="M4242.285714 585.142857a109.714286 109.714286 0 0 1-109.714285 109.714286h-329.142858v-146.285714h292.571429v-36.571429h-292.571429V292.571429a109.714286 109.714286 0 0 1 109.714286-109.714286h329.142857v146.285714h-292.571428v36.571429h292.571428v219.428571z" fill="#FFFFFF" p-id="3171"></path><path d="M2011.428571 694.857143V329.142857H1792v365.714286h-146.285714V329.142857H1426.285714v365.714286h-146.285714V182.857143h768a109.714286 109.714286 0 0 1 109.714286 109.714286v402.285714h-146.285715z" fill="#0BB3B3" p-id="3172"></path><path d="M3547.428571 694.857143h-365.714285v73.142857h-146.285715V182.857143h512a109.714286 109.714286 0 0 1 109.714286 109.714286v292.571428a109.714286 109.714286 0 0 1-109.714286 109.714286z m-36.571428-365.714286h-329.142857v219.428572h329.142857V329.142857z m-329.142857 694.857143h-146.285715v-146.285714h146.285715v146.285714z" fill="#FFFFFF" p-id="3173"></path></svg>