<?xml version="1.0" standalone="no"?><!DOCTYPE svg PUBLIC "-//W3C//DTD SVG 1.1//EN" "http://www.w3.org/Graphics/SVG/1.1/DTD/svg11.dtd"><svg t="1603365016425" class="icon" viewBox="0 0 1731 1024" version="1.1" xmlns="http://www.w3.org/2000/svg" p-id="4264" xmlns:xlink="http://www.w3.org/1999/xlink" width="338.0859375" height="200"><defs><style type="text/css"></style></defs><path d="M330.212926 806.340125l-87.15708 105.8989a137.135266 137.135266 0 1 1-211.7978-174.283686l87.15708-105.883662a137.135266 137.135266 0 1 1 211.7978 174.268448z" fill="#FFA600" p-id="4265"></path><path d="M819.176334 212.178731L557.705094 529.844955a129.51664 129.51664 0 1 1-199.912743-164.562319L619.111219 47.616412a129.51664 129.51664 0 1 1 200.065115 164.562319z" fill="#296AEF" p-id="4266"></path><path d="M1700.19423 868.096707l-87.15708 105.898899a137.135266 137.135266 0 1 1-211.797799-174.283685l87.15708-105.883663a137.135266 137.135266 0 1 1 211.797799 174.268449zM1490.377274 547.489693l-348.475948 423.595598a129.51664 129.51664 0 1 1-200.065115-164.562319l348.62832-423.595598a129.51664 129.51664 0 1 1 199.912743 164.562319zM1277.969984 254.26402L706.725416 948.442735a129.51664 129.51664 0 1 1-200.065115-164.562319L1077.904869 89.701701a129.51664 129.51664 0 0 1 200.065115 164.562319z" fill="#8ED2FF" p-id="4267"></path><path d="M968.044284 630.715562L706.725416 948.381786a129.51664 129.51664 0 1 1-200.065115-164.562319L768.131541 466.153243a129.51664 129.51664 0 1 1 199.912743 164.562319z" fill="#296AEF" p-id="4268"></path><path d="M1238.657875 853.392759l-96.756549 117.662058a129.51664 129.51664 0 1 1-200.065115-164.562319l96.908921-117.662058a129.51664 129.51664 0 1 1 199.912743 164.562319z" fill="#296AEF" p-id="4269"></path></svg>