<?xml version="1.0" standalone="no"?><!DOCTYPE svg PUBLIC "-//W3C//DTD SVG 1.1//EN" "http://www.w3.org/Graphics/SVG/1.1/DTD/svg11.dtd"><svg t="1603365006923" class="icon" viewBox="0 0 1365 1024" version="1.1" xmlns="http://www.w3.org/2000/svg" p-id="4139" xmlns:xlink="http://www.w3.org/1999/xlink" width="266.6015625" height="200"><defs><style type="text/css"></style></defs><path d="M1196.032 912.7936L1232.554667 1024l-132.778667-66.833067a652.936533 652.936533 0 0 1-145.066667 22.3232c-229.717333 0-410.965333-144.6912-410.965333-322.8672s181.248-322.901333 410.965333-322.901333c217.429333 0 410.624 144.9984 410.624 322.901333 0 100.317867-72.362667 189.166933-169.301333 256.170667zM821.589333 512a44.680533 44.680533 0 1 0 0 89.019733 46.592 46.592 0 1 0 0-89.019733z m265.898667 0a44.6464 44.6464 0 1 0 0 89.019733 46.592 46.592 0 1 0 0-89.019733z m-574.122667 150.016a303.786667 303.786667 0 0 0 15.018667 93.252267c-15.018667 1.058133-30.037333 1.7408-45.056 1.7408a891.323733 891.323733 0 0 1-169.301333-22.3232l-168.96 77.994666 48.128-133.8368c-120.832-77.824-193.194667-178.176-193.194667-300.373333C0 166.843733 217.429333 0.068267 483.328 0.068267c237.568 0 445.781333 133.12 487.424 312.456533a454.382933 454.382933 0 0 0-46.421333-2.628267c-229.717333-0.068267-410.965333 157.730133-410.965334 352.0512zM326.314667 189.269333a57.617067 57.617067 0 1 0 0 111.2064 55.808 55.808 0 1 0 0-111.274666z m338.261333 0a57.617067 57.617067 0 1 0 0 111.2064 55.808 55.808 0 1 0 0-111.274666z" fill="#339933" p-id="4140"></path></svg>